<?xml version="1.0" encoding="utf-8"?>
<!-- Generator: Adobe Illustrator 18.1.0, SVG Export Plug-In . SVG Version: 6.00 Build 0)  -->
<!DOCTYPE svg PUBLIC "-//W3C//DTD SVG 1.1//EN" "http://www.w3.org/Graphics/SVG/1.1/DTD/svg11.dtd">
<svg version="1.1" id="Layer_1" xmlns="http://www.w3.org/2000/svg" xmlns:xlink="http://www.w3.org/1999/xlink" x="0px" y="0px"
	 viewBox="0 0 1000 1000" enable-background="new 0 0 1000 1000" xml:space="preserve">
<g>
	<g>
		<path fill="#FFFFFF" d="M1727.1,1227.6c0-1.3,0.4-2.6,0.4-4c0-131.8-103.3-238.6-230.8-238.6c-90,0-167.1,53.8-205.2,131.4
			c-20.1-7.3-41.5-12.1-64.1-12.1c-105.4,0-190.7,87.6-192.1,196.4h-0.2v1.2c-85,0-153.8,71.2-153.8,159.1
			c0,87.9,68.9,159.1,153.8,159.1v1.2H1689c106.2,0,192.3-89,192.3-198.9C1881.3,1326.2,1815.1,1245.9,1727.1,1227.6z
			 M1633.9,1272.8c-3.7,3-10.5,3.9-15.6,3.4c-9.3-0.8-18.3-3.7-27.6-5.1c-13.1-1.9-16.6,0.3-21.2,12.6c-5.7,15.1-9,31.6-17.1,45.2
			c-11.4,19.2-15.4,39.2-15.5,61.3c1.1,0.2,2.6,0.7,4,0.5c21.1-2.3,40,2.4,57.1,14.1c1,0.3,2,0.8,3,1.4c6.2,4,12.4,8,18.6,12.1
			c3.6-1.1,7.7,0.1,10.1,3.3c1.6,2.1,2.7,4.9,2.8,7.6c0.1,3.8-1,6.8-3,9.9c-1.6,2.3-4,3.9-6.8,4.9c-0.8,0.8-1.7,1.4-2.8,2
			c-23.5,11-46.7,21.4-70.9,30.6c-9.2,3.5-19.2,5.3-27.9,9.7c-9.2,4.6-17.8,4.8-29.5,1.1c7.5-7.6,14.1-14.1,20.4-20.8
			c3.6-3.9,6.9-3.9,12.1-2.8c6.4,1.5,13.7,2.7,19.3-4c2.1-2.5,6.2-3.2,9.4-4.8c7.3-3.6,15.1-6.7,22.5-10.1c0.3-0.6,0.6-1.1,1-1.7
			c3-4,6-7.9,9.1-11.9c-0.1,0-0.1-0.1-0.2-0.1c-5.8-1.6-11.6-3.3-17.4-4.9c-14.5-0.9-29.2-1-43.8-1.2c-8.9-0.2-18.5,0.7-26.7,3.9
			c-8.5,3.3-15.3,11-23.7,15.1c-51.4,25.4-104.9,34.5-161,17.8c-4.3-1.3-7.8-2.5-11.1,2.2c-6.8,9.7-17.3,14.2-28.2,15.2
			c-33.4,3.2-66.9,5.7-100.4,7.3c-15.3,0.7-27.2,4.6-37.1,17.4c-13.2,17.1-28.3,32.9-42.7,49.1c-2.4,2.7-5.3,6-8.5,6.7
			c-11.4,2.5-23,4-34.5,5.9c-0.6-1-1.2-2-1.8-3c5.3-5,9.8-12.6,16.1-14.5c6.2-1.9,11.4-0.7,16.2-8.2c6.2-9.7,17.2-16.1,24.7-25.1
			c12.5-15.2,23.8-31.3,35.6-46.9c-21.9-7.5-38.4,0.5-54.5,12.5c-12.2,9-25.4,16.8-38.4,24.6c-16,9.5-32.9,4.8-49.5,2.2
			c-0.3-0.1-0.5-1-1-1.9c1-1.6,1.9-3.5,3.1-5.2c4.8-6.6,9.5-13.2,18.7-5.6c1.4,1.2,4.4,1.9,6,1.3c8-3.1,16.5-5.8,23.5-10.5
			c19.7-13.1,40.7-25.1,57.4-41.5c14.5-14.2,27.3-15.7,44.9-9.9c6.6,2.2,15.7,0.4,22.5-2.5c13.6-5.8,15.1-18.4,14.5-31.7
			c-0.6-14.3,8.3-26,21.9-29.9c4-1.1,7.8-2.7,11.8-4c-3.6-7.9-6.4-10-14.3-8.6c-14.3,2.6-28.6,5.6-42.8,9.3
			c-11.9,3.1-23.6,7.4-37.8,3.2c3-1.5,4.4-2.5,6.1-2.9c17.8-5,35.6-10.1,53.5-14.7c10.7-2.8,21-6.3,33-3.9c19.2,4,38.9,5.5,58.5,7.6
			c12.9,1.4,25.9,2.2,38.9,2.9c5.1,0.3,10.5,0.4,15.5-0.8c18.9-4.7,37.6-10.2,56.5-15.1c12.8-3.3,23.2-9.2,32.2-19.5
			c5.6-6.5,14.5-10.8,22.8-14.2c11.3-4.7,24.6-5.3,32.4-16.8c0.6-0.9,2-2,2.9-1.8c11,1.6,14.7-9.2,18.5-14.4
			c8.9-12.3,14-27.4,20.4-41.5c5.8-12.7,9.7-26.6,17.4-38c4.7-7.1,5-11.5,1.2-17.9c-5.4-9.2-4.3-18.3,0.9-28.4
			c14.1,7.7,15.3,20.7,16.7,34.1c5.5,0.1,10.6,0.3,16.8,0.4c-10.1-22-26.2-36.8-42.4-51.4c-11.1-10.1-22.7-19.7-33.8-29.7
			c-7.2-6.5-10.4-17.7-8.4-26.6c10.7,20.4,11,20,30.9,32.4c3.1,1.9,8.6,0.3,10.5,7c1,3.5,9.6,4.8,16.9,8
			c-8.6-10-15.7-17.9-22.4-26.2c-8.7-10.8-11.3-21.2-6.6-31.2c0.6,20.1,13,29.7,26.5,38.5c4.8,3.1,10.2,5.8,14.3,9.8
			c6.5,6.2,12.5,13,17.9,20.2c6.1,8.1,12.6,16.3,16.8,25.5c6.6,14.4,11.5,29.5,17.1,44.4c0.8,2.3,0.8,4.9,1.9,7
			c3.6,6.8,6.9,13.8,11.4,20c5,6.8,11.4,12.6,16.8,19.1C1645.2,1260.1,1640.2,1267.6,1633.9,1272.8z"/>
	</g>
</g>
<g>
	<g>
		
			<path id="path3773_83_" inkscape:export-filename="/home/rafael/workspace/logo-osi/3/png/logo396x412.png" inkscape:export-xdpi="48.18" inkscape:export-ydpi="48.18" inkscape:connector-curvature="0" fill="#FFFFFF" d="
			M333.1,868.2c24-9.2,36-36.2,26.8-60.2c-9.2-24-36.2-36-60.2-26.8c-24,9.2-36,36.2-26.8,60.2c4.7,12.3,14.5,22.1,26.8,26.8
			L268.3,950c-69.2-26.6-103.7-104.2-77.2-173.4s104.2-103.7,173.4-77.2c69.2,26.6,103.7,104.2,77.2,173.4
			c-13.6,35.5-41.7,63.6-77.2,77.2L333.1,868.2z"/>
	</g>
	<g>
		<path fill="#FFFFFF" d="M841.7,274.1c2.3,0,4.4,0.9,6,2.5c3.3,3.3,3.3,8.7,0,12c-1.6,1.6-3.7,2.5-6,2.5c-0.9,0-1.9-0.1-2.7-0.4
			l-4-1.3l-1.3-4c-1-3.1-0.3-6.4,2-8.7C837.3,275,839.5,274.1,841.7,274.1 M379,898.1l3.7,1.9c2.9,1.4,4.7,4.4,4.7,7.6
			c0,4.7-3.8,8.5-8.5,8.5c-4.7,0-8.5-3.8-8.5-8.5c0-3.2,1.8-6.1,4.7-7.6L379,898.1 M841.7,260.9c-5.6,0-11.1,2.1-15.3,6.4
			c-6,6-7.7,14.7-5.2,22.3L663.8,446.9H458.3l-89,89v352.3c-7.1,3.6-12.1,10.9-12.1,19.4c0,12,9.7,21.7,21.7,21.7
			c12,0,21.7-9.7,21.7-21.7c0-8.5-4.9-15.9-12.1-19.4V543.9l77.7-77.7h205.5l163-163c2.3,0.8,4.6,1.1,7,1.1c5.5,0,11.1-2.1,15.3-6.3
			c8.5-8.5,8.5-22.2,0-30.7C852.8,263,847.3,260.9,841.7,260.9L841.7,260.9z"/>
		<path fill="#FFFFFF" d="M624.5,99.6c-12,0-21.7,9.7-21.7,21.7c0,8.5,4.9,15.9,12.1,19.4v171.1l-61.6,59.4H425.9L309.7,487.4v260.9
			c3.3-0.1,6.4-0.5,9.7-0.5c3.3,0,6.3,0.4,9.5,0.5V495.4l104.9-104.9h127.3l73-70.4V140.7c7.1-3.5,12.1-10.9,12.1-19.4
			C646.2,109.3,636.5,99.6,624.5,99.6z"/>
		<path fill="#FFFFFF" d="M624.5,112.8c4.7,0,8.5,3.8,8.5,8.5c0,3.2-1.8,6.1-4.7,7.6l-3.7,1.9l-3.7-1.9c-2.9-1.4-4.7-4.4-4.7-7.6
			C616.1,116.6,619.9,112.8,624.5,112.8"/>
		<path fill="#FFFFFF" d="M96.7,322.8c2.3,0,4.4,0.9,6,2.5c2.3,2.3,3.1,5.6,2,8.7l-1.3,4l-4,1.3c-0.9,0.3-1.8,0.4-2.7,0.4
			c-2.3,0-4.4-0.9-6-2.5c-1.6-1.6-2.5-3.7-2.5-6c0-2.3,0.9-4.4,2.5-6C92.3,323.7,94.4,322.8,96.7,322.8 M258,872.5l3.7,1.9
			c2.9,1.4,4.7,4.4,4.7,7.6c0,4.7-3.8,8.5-8.5,8.5s-8.5-3.8-8.5-8.5c0-3.2,1.8-6.1,4.7-7.6L258,872.5 M96.7,309.6
			c-5.6,0-11.1,2.1-15.3,6.4c-8.5,8.5-8.5,22.2,0,30.7c4.2,4.2,9.8,6.3,15.3,6.3c2.4,0,4.7-0.4,7-1.1l75.1,75.1v129.8l69.7,69.7
			v236.1c-7.1,3.5-12.1,10.9-12.1,19.4c0,12,9.7,21.7,21.7,21.7c12,0,21.7-9.7,21.7-21.7c0-8.5-4.9-15.9-12.1-19.4V618.4l-69.7-69.7
			V418.9l-80.7-80.7c2.5-7.6,0.8-16.2-5.2-22.3C107.8,311.7,102.2,309.6,96.7,309.6L96.7,309.6z"/>
		<path fill="#FFFFFF" d="M758.2,171.4c2.3,0,4.4,0.9,6,2.5c3.3,3.3,3.3,8.7,0,12c-1.6,1.6-3.7,2.5-6,2.5c-0.9,0-1.9-0.1-2.7-0.4
			l-4-1.3l-1.3-4c-1-3.1-0.3-6.4,2-8.7C753.8,172.3,756,171.4,758.2,171.4 M637.4,378.7c0.9,0,1.9,0.1,2.7,0.4l4,1.3l1.3,4
			c1,3.1,0.3,6.4-2,8.7c-1.6,1.6-3.7,2.5-6,2.5c-2.3,0-4.4-0.9-6-2.5c-1.6-1.6-2.5-3.7-2.5-6s0.9-4.4,2.5-6
			C633.1,379.6,635.2,378.7,637.4,378.7 M758.2,158.2c-5.6,0-11.1,2.1-15.3,6.4c-6,6-7.7,14.7-5.2,22.3L699,225.4V312l-54.7,54.6
			c-2.3-0.8-4.6-1.1-7-1.1c-5.5,0-11.1,2.1-15.3,6.3c-8.5,8.5-8.5,22.2,0,30.7c4.2,4.2,9.8,6.4,15.3,6.4s11.1-2.1,15.3-6.4
			c6-6,7.7-14.7,5.2-22.3l60.3-60.3v-86.5l33-33c2.3,0.8,4.6,1.1,7,1.1c5.5,0,11.1-2.1,15.3-6.3c8.5-8.5,8.5-22.2,0-30.7
			C769.3,160.3,763.8,158.2,758.2,158.2L758.2,158.2z"/>
		<path fill="#FFFFFF" d="M903.3,350.8c4.7,0,8.5,3.8,8.5,8.5c0,3.2-1.8,6.1-4.7,7.6l-3.7,1.9l-3.7-1.9c-2.9-1.4-4.7-4.4-4.7-7.6
			C894.9,354.6,898.7,350.8,903.3,350.8 M832.1,508.5c0.9,0,1.9,0.1,2.7,0.4l4,1.3l1.3,4c1,3.1,0.3,6.4-2,8.7
			c-1.6,1.6-3.7,2.5-6,2.5c-2.3,0-4.4-0.9-6-2.5c-3.3-3.3-3.3-8.7,0-12C827.7,509.3,829.9,508.5,832.1,508.5 M903.3,337.6
			c-12,0-21.7,9.7-21.7,21.7c0,8.5,4.9,15.9,12.1,19.4v63.1l-54.7,54.6c-2.3-0.8-4.6-1.1-7-1.1c-5.5,0-11.1,2.1-15.3,6.3
			c-8.5,8.5-8.5,22.2,0,30.7c4.2,4.2,9.8,6.4,15.3,6.4c5.6,0,11.1-2.1,15.3-6.4c6-6,7.7-14.7,5.2-22.3l60.3-60.3v-71
			c7.1-3.5,12.1-10.9,12.1-19.4C925,347.3,915.3,337.6,903.3,337.6L903.3,337.6z"/>
		<path fill="#FFFFFF" d="M211.1,156.1c4.7,0,8.5,3.8,8.5,8.5c0,3.2-1.8,6.1-4.7,7.6l-3.7,1.9l-3.7-1.9c-2.9-1.4-4.7-4.4-4.7-7.6
			C202.6,159.9,206.4,156.1,211.1,156.1 M254.4,522.8l3.7,1.9c2.9,1.4,4.7,4.4,4.7,7.6c0,4.7-3.8,8.5-8.5,8.5s-8.5-3.8-8.5-8.5
			c0-3.2,1.8-6.1,4.7-7.6L254.4,522.8 M211.1,142.9c-12,0-21.7,9.7-21.7,21.7c0,8.5,4.9,15.9,12.1,19.4v92.7l43.3,43.3v192.9
			c-7.1,3.5-12.1,10.9-12.1,19.4c0,12,9.7,21.7,21.7,21.7c12,0,21.7-9.7,21.7-21.7c0-8.5-4.9-15.9-12.1-19.4V312l-43.3-43.3V184
			c7.1-3.5,12.1-10.9,12.1-19.4C232.8,152.6,223.1,142.9,211.1,142.9L211.1,142.9z"/>
		<path fill="#FFFFFF" d="M124.6,221c4.7,0,8.5,3.8,8.5,8.5c0,3.2-1.8,6.1-4.7,7.6l-3.7,1.9l-3.7-1.9c-2.9-1.4-4.7-4.4-4.7-7.6
			C116.1,224.8,119.9,221,124.6,221 M174.2,313.8c2.3,0,4.4,0.9,6,2.5c3.3,3.3,3.3,8.7,0,12c-1.6,1.6-3.7,2.5-6,2.5s-4.4-0.9-6-2.5
			c-2.3-2.3-3.1-5.6-2-8.7l1.3-4l4-1.3C172.3,313.9,173.2,313.8,174.2,313.8 M124.6,207.8c-12,0-21.7,9.7-21.7,21.7
			c0,8.5,4.9,15.9,12.1,19.4v27.8l38.6,38.6c-2.5,7.6-0.8,16.2,5.2,22.3c4.2,4.2,9.8,6.4,15.3,6.4c5.6,0,11.1-2.1,15.3-6.4
			c8.5-8.5,8.5-22.2,0-30.7c-4.2-4.2-9.8-6.3-15.3-6.3c-2.4,0-4.7,0.4-7,1.1l-33-33v-19.8c7.1-3.5,12.1-10.9,12.1-19.4
			C146.3,217.5,136.6,207.8,124.6,207.8L124.6,207.8z"/>
		<path fill="#FFFFFF" d="M297.6,112.8c4.7,0,8.5,3.8,8.5,8.5c0,3.2-1.8,6.1-4.7,7.6l-3.7,1.9l-3.7-1.9c-2.9-1.4-4.7-4.4-4.7-7.6
			C289.2,116.6,293,112.8,297.6,112.8 M513.9,285.8c4.7,0,8.5,3.8,8.5,8.5c0,4.7-3.8,8.5-8.5,8.5c-3.2,0-6.1-1.8-7.6-4.7l-1.9-3.7
			l1.9-3.7C507.8,287.7,510.7,285.8,513.9,285.8 M297.6,99.6c-12,0-21.7,9.7-21.7,21.7c0,8.5,4.9,15.9,12.1,19.4v49.4l113.8,113.8
			h92.7c3.6,7.1,10.9,12.1,19.4,12.1c12,0,21.7-9.7,21.7-21.7c0-12-9.7-21.7-21.7-21.7c-8.5,0-15.9,4.9-19.4,12.1h-84.7L307.3,182.2
			v-41.5c7.1-3.5,12.1-10.9,12.1-19.4C319.3,109.3,309.6,99.6,297.6,99.6L297.6,99.6z"/>
		<path fill="#FFFFFF" d="M455.4,63.2c2.3,0,4.4,0.9,6,2.5c1.6,1.6,2.5,3.7,2.5,6c0,2.3-0.9,4.4-2.5,6c-1.6,1.6-3.7,2.5-6,2.5
			c-0.9,0-1.9-0.1-2.7-0.4l-4-1.3l-1.3-4c-1-3.1-0.3-6.4,2-8.7C451,64.1,453.1,63.2,455.4,63.2 M535.5,199.3c4.7,0,8.5,3.8,8.5,8.5
			c0,4.7-3.8,8.5-8.5,8.5c-3.2,0-6.1-1.8-7.6-4.7l-1.9-3.7l1.9-3.7C529.4,201.1,532.3,199.3,535.5,199.3 M455.4,50
			c-5.6,0-11.1,2.1-15.3,6.4c-6,6-7.7,14.7-5.2,22.3l-64.3,64.3l74.5,74.5h71c3.6,7.1,10.9,12.1,19.4,12.1c12,0,21.7-9.7,21.7-21.7
			c0-12-9.7-21.7-21.7-21.7c-8.5,0-15.9,4.9-19.4,12.1H453l-55.3-55.3l50.7-50.7c2.3,0.8,4.6,1.1,7,1.1c5.5,0,11.1-2.1,15.3-6.3
			c8.5-8.5,8.5-22.2,0-30.7C466.5,52.1,460.9,50,455.4,50L455.4,50z"/>
		<path fill="#FFFFFF" d="M563.5,63.2c2.3,0,4.4,0.9,6,2.5c3.3,3.3,3.3,8.7,0,12c-1.6,1.6-3.7,2.5-6,2.5c-0.9,0-1.9-0.1-2.7-0.4
			l-4-1.3l-1.3-4c-1-3.1-0.3-6.4,2-8.7C559.1,64.1,561.3,63.2,563.5,63.2 M507.6,119.1c0.9,0,1.9,0.1,2.7,0.4l4,1.3l1.3,4
			c1,3.1,0.3,6.4-2,8.7c-1.6,1.6-3.7,2.5-6,2.5s-4.4-0.9-6-2.5c-1.6-1.6-2.5-3.7-2.5-6s0.9-4.4,2.5-6
			C503.3,120,505.4,119.1,507.6,119.1 M563.5,50c-5.6,0-11.1,2.1-15.3,6.4c-6,6-7.7,14.7-5.2,22.3L514.6,107c-2.3-0.8-4.6-1.1-7-1.1
			c-5.5,0-11.1,2.1-15.3,6.3c-8.5,8.5-8.5,22.2,0,30.7c4.2,4.2,9.8,6.4,15.3,6.4s11.1-2.1,15.3-6.4c6-6,7.7-14.7,5.2-22.3l28.4-28.4
			c2.3,0.8,4.6,1.1,7,1.1c5.5,0,11.1-2.1,15.3-6.3c8.5-8.5,8.5-22.2,0-30.7C574.6,52.1,569.1,50,563.5,50L563.5,50z"/>
		<path fill="#FFFFFF" d="M313,279.5c2.3,0,4.4,0.9,6,2.5c2.3,2.3,3.1,5.6,2,8.7l-1.3,4l-4,1.3c-0.9,0.3-1.8,0.4-2.7,0.4
			c-2.3,0-4.4-0.9-6-2.5c-3.3-3.3-3.3-8.7,0-12C308.6,280.4,310.7,279.5,313,279.5 M312.9,378.7c0.9,0,1.9,0.1,2.7,0.4l4,1.3l1.3,4
			c1,3.1,0.3,6.4-2,8.7c-1.6,1.6-3.7,2.5-6,2.5c-2.3,0-4.4-0.9-6-2.5c-3.3-3.3-3.3-8.7,0-12C308.6,379.6,310.7,378.7,312.9,378.7
			 M313,266.3c-5.6,0-11.1,2.1-15.3,6.4c-8.5,8.5-8.5,22.2,0,30.7c4.2,4.2,9.8,6.3,15.3,6.3c2.4,0,4.7-0.4,7-1.1l11.4,11.4v35.3
			l-11.4,11.4c-2.3-0.8-4.6-1.1-7-1.1c-5.5,0-11.1,2.1-15.3,6.3c-8.5,8.5-8.5,22.2,0,30.7c4.2,4.2,9.8,6.4,15.3,6.4
			c5.6,0,11.1-2.1,15.3-6.4c6-6,7.7-14.7,5.2-22.3l17-17V312l-17-17c2.5-7.6,0.8-16.2-5.2-22.3C324.1,268.4,318.5,266.3,313,266.3
			L313,266.3z"/>
		<path fill="#FFFFFF" d="M823.1,409.3c2.3,0,4.4,0.9,6,2.5c3.3,3.3,3.3,8.7,0,12c-1.6,1.6-3.7,2.5-6,2.5c-0.9,0-1.9-0.1-2.7-0.4
			l-4-1.3l-1.3-4c-1-3.1-0.3-6.4,2-8.7C818.7,410.2,820.9,409.3,823.1,409.3 M514,523.8c3.2,0,6.1,1.8,7.6,4.7l1.9,3.7l-1.9,3.7
			c-1.4,2.9-4.4,4.7-7.6,4.7c-4.7,0-8.5-3.8-8.5-8.5C505.5,527.6,509.3,523.8,514,523.8 M823.1,396.1c-5.6,0-11.1,2.1-15.3,6.4
			c-6,6-7.7,14.7-5.2,22.3l-97.9,97.9H533.4c-3.5-7.1-10.9-12.1-19.4-12.1c-12,0-21.7,9.7-21.7,21.7c0,12,9.7,21.7,21.7,21.7
			c8.5,0,15.9-4.9,19.4-12.1h179.2l103.5-103.5c2.3,0.8,4.6,1.1,7,1.1c5.5,0,11.1-2.1,15.3-6.3c8.5-8.5,8.5-22.2,0-30.7
			C834.2,398.2,828.7,396.1,823.1,396.1L823.1,396.1z"/>
		<path fill="#FFFFFF" d="M96.7,431c2.3,0,4.4,0.9,6,2.5c2.3,2.3,3.1,5.6,2,8.7l-1.3,4l-4,1.3c-0.9,0.3-1.8,0.4-2.7,0.4
			c-2.3,0-4.4-0.9-6-2.5c-3.3-3.3-3.3-8.7,0-12C92.3,431.9,94.4,431,96.7,431 M124.6,522.8l3.7,1.9c2.9,1.4,4.7,4.4,4.7,7.6
			c0,4.7-3.8,8.5-8.5,8.5s-8.5-3.8-8.5-8.5c0-3.2,1.8-6.1,4.7-7.6L124.6,522.8 M96.7,417.8c-5.6,0-11.1,2.1-15.3,6.4
			c-8.5,8.5-8.5,22.2,0,30.7c4.2,4.2,9.8,6.3,15.3,6.3c2.4,0,4.7-0.4,7-1.1l11.4,11.4v41.4c-7.1,3.5-12.1,10.9-12.1,19.4
			c0,12,9.7,21.7,21.7,21.7s21.7-9.7,21.7-21.7c0-8.5-4.9-15.9-12.1-19.4v-49.4l-17-17c2.5-7.6,0.8-16.2-5.2-22.3
			C107.8,419.9,102.2,417.8,96.7,417.8L96.7,417.8z"/>
	</g>
</g>
</svg>
